G04*
G04 #@! TF.GenerationSoftware,Altium Limited,Altium Designer,20.0.11 (256)*
G04*
G04 Layer_Color=16711935*
%FSLAX44Y44*%
%MOMM*%
G71*
G01*
G75*
%ADD27R,1.7000X1.7000*%
%ADD52R,1.3000X1.3000*%
%ADD60R,1.1000X1.1000*%
%ADD61R,0.8000X0.8000*%
%ADD62C,1.7000*%
%ADD63R,1.6000X1.6000*%
%ADD64C,1.6000*%
%ADD65R,1.5000X1.5000*%
%ADD66C,1.5000*%
%ADD67C,2.1000*%
%ADD68C,0.9000*%
%ADD69C,1.3000*%
%ADD70R,3.1000X3.1000*%
G36*
X985429Y1070997D02*
X985557Y1070971D01*
X985681Y1070929D01*
X985799Y1070871D01*
X985908Y1070798D01*
X986006Y1070712D01*
X986093Y1070613D01*
X986166Y1070504D01*
X986224Y1070387D01*
X986266Y1070263D01*
X986291Y1070134D01*
X986300Y1070003D01*
X986300Y1042953D01*
X986297Y1042904D01*
X986295Y1042853D01*
X986292Y1042838D01*
X986291Y1042823D01*
X986282Y1042774D01*
X986273Y1042724D01*
X986269Y1042709D01*
X986266Y1042694D01*
X986250Y1042646D01*
X986235Y1042599D01*
X986229Y1042585D01*
X986224Y1042570D01*
X986202Y1042525D01*
X986181Y1042479D01*
X982181Y1035029D01*
X982173Y1035016D01*
X982166Y1035002D01*
X982138Y1034961D01*
X982111Y1034918D01*
X982102Y1034906D01*
X982093Y1034893D01*
X982060Y1034856D01*
X982028Y1034817D01*
X982017Y1034806D01*
X982007Y1034795D01*
X981969Y1034762D01*
X981932Y1034727D01*
X981919Y1034718D01*
X981908Y1034708D01*
X981866Y1034680D01*
X981825Y1034651D01*
X981812Y1034644D01*
X981799Y1034635D01*
X981754Y1034613D01*
X981710Y1034590D01*
X981695Y1034584D01*
X981681Y1034577D01*
X981633Y1034561D01*
X981587Y1034544D01*
X981572Y1034540D01*
X981557Y1034535D01*
X981508Y1034526D01*
X981459Y1034514D01*
X981444Y1034513D01*
X981429Y1034510D01*
X981379Y1034507D01*
X981329Y1034502D01*
X981313Y1034502D01*
X981298Y1034501D01*
X971298D01*
X971246Y1034505D01*
X971193Y1034507D01*
X971180Y1034509D01*
X971167Y1034510D01*
X971116Y1034520D01*
X971064Y1034529D01*
X971051Y1034533D01*
X971039Y1034535D01*
X970989Y1034552D01*
X970938Y1034568D01*
X970927Y1034573D01*
X970914Y1034577D01*
X970867Y1034601D01*
X970819Y1034623D01*
X970808Y1034630D01*
X970797Y1034635D01*
X970753Y1034665D01*
X970708Y1034693D01*
X970698Y1034701D01*
X970688Y1034708D01*
X970648Y1034743D01*
X970608Y1034777D01*
X970599Y1034786D01*
X970589Y1034795D01*
X970555Y1034834D01*
X970519Y1034873D01*
X970511Y1034884D01*
X970503Y1034893D01*
X970474Y1034937D01*
X970443Y1034980D01*
X970437Y1034992D01*
X970430Y1035002D01*
X970407Y1035049D01*
X970382Y1035096D01*
X970378Y1035108D01*
X970372Y1035120D01*
X970355Y1035170D01*
X970337Y1035219D01*
X970334Y1035232D01*
X970330Y1035244D01*
X970320Y1035295D01*
X970308Y1035347D01*
X970307Y1035360D01*
X970304Y1035372D01*
X970301Y1035425D01*
X970296Y1035478D01*
X970297Y1035490D01*
X970296Y1035503D01*
X970299Y1035556D01*
X970301Y1035609D01*
X970303Y1035621D01*
X970304Y1035634D01*
X970314Y1035685D01*
X970324Y1035738D01*
X970327Y1035750D01*
X970330Y1035763D01*
X970347Y1035812D01*
X970362Y1035863D01*
X970368Y1035875D01*
X970372Y1035887D01*
X970395Y1035934D01*
X970417Y1035982D01*
X970424Y1035993D01*
X970430Y1036004D01*
X970459Y1036048D01*
X970487Y1036093D01*
X974296Y1041329D01*
X974296Y1070003D01*
X974304Y1070134D01*
X974330Y1070263D01*
X974372Y1070387D01*
X974430Y1070504D01*
X974503Y1070613D01*
X974589Y1070712D01*
X974688Y1070798D01*
X974797Y1070871D01*
X974914Y1070929D01*
X975039Y1070971D01*
X975167Y1070997D01*
X975298Y1071005D01*
X985298D01*
X985429Y1070997D01*
D02*
G37*
G36*
X1010829D02*
X1010957Y1070971D01*
X1011081Y1070929D01*
X1011199Y1070871D01*
X1011308Y1070798D01*
X1011406Y1070712D01*
X1011493Y1070613D01*
X1011566Y1070504D01*
X1011624Y1070387D01*
X1011666Y1070263D01*
X1011691Y1070134D01*
X1011700Y1070003D01*
X1011700Y1042953D01*
X1011697Y1042904D01*
X1011695Y1042853D01*
X1011692Y1042838D01*
X1011691Y1042823D01*
X1011682Y1042774D01*
X1011673Y1042724D01*
X1011669Y1042709D01*
X1011666Y1042694D01*
X1011650Y1042646D01*
X1011635Y1042599D01*
X1011629Y1042585D01*
X1011624Y1042570D01*
X1011602Y1042525D01*
X1011581Y1042479D01*
X1007581Y1035029D01*
X1007573Y1035016D01*
X1007566Y1035002D01*
X1007538Y1034961D01*
X1007511Y1034918D01*
X1007502Y1034906D01*
X1007493Y1034893D01*
X1007460Y1034856D01*
X1007428Y1034817D01*
X1007417Y1034806D01*
X1007406Y1034795D01*
X1007369Y1034762D01*
X1007332Y1034727D01*
X1007319Y1034718D01*
X1007308Y1034708D01*
X1007266Y1034680D01*
X1007225Y1034651D01*
X1007212Y1034644D01*
X1007199Y1034635D01*
X1007154Y1034613D01*
X1007110Y1034590D01*
X1007095Y1034584D01*
X1007081Y1034577D01*
X1007033Y1034561D01*
X1006987Y1034544D01*
X1006972Y1034540D01*
X1006957Y1034535D01*
X1006908Y1034526D01*
X1006859Y1034514D01*
X1006844Y1034513D01*
X1006829Y1034510D01*
X1006779Y1034507D01*
X1006729Y1034502D01*
X1006713Y1034502D01*
X1006698Y1034501D01*
X996698D01*
X996646Y1034505D01*
X996593Y1034507D01*
X996580Y1034509D01*
X996567Y1034510D01*
X996516Y1034520D01*
X996463Y1034529D01*
X996451Y1034533D01*
X996439Y1034535D01*
X996389Y1034552D01*
X996338Y1034568D01*
X996327Y1034573D01*
X996314Y1034577D01*
X996267Y1034601D01*
X996219Y1034623D01*
X996208Y1034630D01*
X996197Y1034635D01*
X996153Y1034665D01*
X996108Y1034693D01*
X996098Y1034701D01*
X996088Y1034708D01*
X996048Y1034743D01*
X996008Y1034777D01*
X995999Y1034786D01*
X995989Y1034795D01*
X995955Y1034834D01*
X995919Y1034873D01*
X995911Y1034884D01*
X995903Y1034893D01*
X995874Y1034937D01*
X995843Y1034980D01*
X995837Y1034992D01*
X995830Y1035002D01*
X995807Y1035049D01*
X995782Y1035096D01*
X995778Y1035108D01*
X995772Y1035120D01*
X995755Y1035170D01*
X995737Y1035219D01*
X995734Y1035232D01*
X995730Y1035244D01*
X995720Y1035295D01*
X995708Y1035347D01*
X995707Y1035360D01*
X995704Y1035372D01*
X995701Y1035425D01*
X995696Y1035478D01*
X995697Y1035490D01*
X995696Y1035503D01*
X995699Y1035556D01*
X995701Y1035609D01*
X995704Y1035621D01*
X995704Y1035634D01*
X995714Y1035685D01*
X995724Y1035738D01*
X995727Y1035750D01*
X995730Y1035763D01*
X995747Y1035812D01*
X995762Y1035863D01*
X995768Y1035875D01*
X995772Y1035887D01*
X995795Y1035934D01*
X995817Y1035982D01*
X995824Y1035993D01*
X995830Y1036004D01*
X995859Y1036048D01*
X995887Y1036093D01*
X999696Y1041329D01*
X999696Y1070003D01*
X999704Y1070134D01*
X999730Y1070263D01*
X999772Y1070387D01*
X999830Y1070504D01*
X999903Y1070613D01*
X999989Y1070712D01*
X1000088Y1070798D01*
X1000197Y1070871D01*
X1000314Y1070929D01*
X1000439Y1070971D01*
X1000567Y1070997D01*
X1000698Y1071005D01*
X1010698D01*
X1010829Y1070997D01*
D02*
G37*
G36*
X1050815Y1071001D02*
X1050876Y1070997D01*
X1050877Y1070997D01*
X1050879Y1070997D01*
X1050946Y1070984D01*
X1051005Y1070972D01*
X1051006Y1070972D01*
X1051007Y1070971D01*
X1051071Y1070950D01*
X1051129Y1070930D01*
X1051130Y1070930D01*
X1051131Y1070929D01*
X1051195Y1070898D01*
X1051247Y1070872D01*
X1051248Y1070872D01*
X1051249Y1070871D01*
X1051307Y1070832D01*
X1051356Y1070800D01*
X1051357Y1070799D01*
X1051358Y1070798D01*
X1051407Y1070755D01*
X1051455Y1070714D01*
X1051456Y1070713D01*
X1051457Y1070712D01*
X1051500Y1070663D01*
X1051542Y1070615D01*
X1051542Y1070614D01*
X1051543Y1070613D01*
X1051581Y1070556D01*
X1051615Y1070506D01*
X1051615Y1070505D01*
X1051616Y1070504D01*
X1051645Y1070445D01*
X1051673Y1070389D01*
X1051673Y1070388D01*
X1051674Y1070387D01*
X1051694Y1070327D01*
X1051715Y1070265D01*
X1051715Y1070264D01*
X1051716Y1070263D01*
X1051729Y1070200D01*
X1051741Y1070136D01*
X1051741Y1070135D01*
X1051741Y1070134D01*
X1051746Y1070069D01*
X1051750Y1070006D01*
X1051800Y1047956D01*
X1051798Y1047926D01*
X1051798Y1047897D01*
X1051794Y1047861D01*
X1051792Y1047825D01*
X1051786Y1047796D01*
X1051783Y1047767D01*
X1051774Y1047732D01*
X1051767Y1047696D01*
X1051757Y1047668D01*
X1051750Y1047640D01*
X1047650Y1035190D01*
X1047636Y1035155D01*
X1047624Y1035120D01*
X1047611Y1035094D01*
X1047601Y1035068D01*
X1047582Y1035036D01*
X1047566Y1035002D01*
X1047550Y1034979D01*
X1047536Y1034954D01*
X1047514Y1034924D01*
X1047493Y1034893D01*
X1047474Y1034872D01*
X1047457Y1034849D01*
X1047431Y1034823D01*
X1047406Y1034795D01*
X1047385Y1034776D01*
X1047365Y1034756D01*
X1047336Y1034733D01*
X1047308Y1034708D01*
X1047285Y1034693D01*
X1047262Y1034675D01*
X1047230Y1034656D01*
X1047199Y1034635D01*
X1047174Y1034623D01*
X1047149Y1034609D01*
X1047115Y1034594D01*
X1047081Y1034577D01*
X1047055Y1034568D01*
X1047029Y1034557D01*
X1046993Y1034547D01*
X1046957Y1034535D01*
X1046930Y1034530D01*
X1046902Y1034522D01*
X1046865Y1034517D01*
X1046829Y1034510D01*
X1046801Y1034508D01*
X1046773Y1034504D01*
X1046735Y1034504D01*
X1046698Y1034501D01*
X1032998D01*
X1032980Y1034502D01*
X1032963Y1034502D01*
X1032916Y1034507D01*
X1032867Y1034510D01*
X1032850Y1034513D01*
X1032833Y1034515D01*
X1032786Y1034526D01*
X1032738Y1034535D01*
X1032722Y1034541D01*
X1032705Y1034545D01*
X1032661Y1034562D01*
X1032614Y1034577D01*
X1032599Y1034585D01*
X1032583Y1034591D01*
X1032541Y1034614D01*
X1032497Y1034635D01*
X1032483Y1034645D01*
X1032467Y1034653D01*
X1032428Y1034681D01*
X1032388Y1034708D01*
X1032375Y1034720D01*
X1032361Y1034730D01*
X1032326Y1034763D01*
X1032289Y1034795D01*
X1032278Y1034808D01*
X1032265Y1034819D01*
X1032235Y1034857D01*
X1032203Y1034893D01*
X1032193Y1034908D01*
X1032182Y1034921D01*
X1032157Y1034962D01*
X1032130Y1035002D01*
X1032122Y1035018D01*
X1032113Y1035033D01*
X1032094Y1035076D01*
X1032072Y1035120D01*
X1032066Y1035136D01*
X1032059Y1035152D01*
X1032046Y1035198D01*
X1032030Y1035244D01*
X1032027Y1035261D01*
X1032022Y1035277D01*
X1032014Y1035325D01*
X1032004Y1035372D01*
X1032003Y1035390D01*
X1032000Y1035407D01*
X1031999Y1035455D01*
X1031996Y1035503D01*
X1031997Y1035520D01*
X1031996Y1035538D01*
X1032001Y1035586D01*
X1032004Y1035634D01*
X1032008Y1035651D01*
X1032010Y1035668D01*
X1032020Y1035715D01*
X1032030Y1035763D01*
X1032036Y1035779D01*
X1032039Y1035796D01*
X1035796Y1048102D01*
X1035746Y1070001D01*
X1035746Y1070002D01*
X1035746Y1070003D01*
X1035750Y1070065D01*
X1035754Y1070132D01*
X1035754Y1070133D01*
X1035754Y1070134D01*
X1035767Y1070196D01*
X1035779Y1070260D01*
X1035780Y1070262D01*
X1035780Y1070263D01*
X1035801Y1070326D01*
X1035821Y1070385D01*
X1035822Y1070386D01*
X1035822Y1070387D01*
X1035851Y1070445D01*
X1035879Y1070502D01*
X1035880Y1070503D01*
X1035880Y1070504D01*
X1035917Y1070559D01*
X1035952Y1070612D01*
X1035952Y1070612D01*
X1035953Y1070613D01*
X1035996Y1070663D01*
X1036038Y1070710D01*
X1036039Y1070711D01*
X1036039Y1070712D01*
X1036088Y1070755D01*
X1036136Y1070797D01*
X1036137Y1070798D01*
X1036138Y1070798D01*
X1036195Y1070836D01*
X1036245Y1070870D01*
X1036246Y1070871D01*
X1036247Y1070871D01*
X1036304Y1070899D01*
X1036362Y1070928D01*
X1036364Y1070929D01*
X1036364Y1070929D01*
X1036422Y1070949D01*
X1036486Y1070971D01*
X1036488Y1070971D01*
X1036488Y1070971D01*
X1036552Y1070984D01*
X1036615Y1070997D01*
X1036616Y1070997D01*
X1036617Y1070997D01*
X1036682Y1071001D01*
X1036746Y1071005D01*
X1036747Y1071005D01*
X1036748Y1071005D01*
X1050748D01*
X1050815Y1071001D01*
D02*
G37*
G36*
X1076314Y1071001D02*
X1076379Y1070997D01*
X1076380Y1070997D01*
X1076381Y1070997D01*
X1076444Y1070984D01*
X1076507Y1070971D01*
X1076508Y1070971D01*
X1076509Y1070971D01*
X1076569Y1070951D01*
X1076631Y1070929D01*
X1076633Y1070929D01*
X1076634Y1070928D01*
X1076687Y1070902D01*
X1076749Y1070871D01*
X1076750Y1070871D01*
X1076751Y1070870D01*
X1076801Y1070836D01*
X1076858Y1070798D01*
X1076859Y1070798D01*
X1076860Y1070797D01*
X1076907Y1070755D01*
X1076956Y1070712D01*
X1076957Y1070711D01*
X1076958Y1070710D01*
X1077000Y1070663D01*
X1077043Y1070613D01*
X1077044Y1070612D01*
X1077044Y1070612D01*
X1077079Y1070559D01*
X1077116Y1070504D01*
X1077116Y1070503D01*
X1077117Y1070502D01*
X1077145Y1070445D01*
X1077174Y1070387D01*
X1077174Y1070386D01*
X1077175Y1070385D01*
X1077194Y1070326D01*
X1077216Y1070263D01*
X1077216Y1070262D01*
X1077216Y1070260D01*
X1077229Y1070196D01*
X1077241Y1070134D01*
X1077242Y1070133D01*
X1077242Y1070132D01*
X1077246Y1070065D01*
X1077250Y1070003D01*
X1077250Y1070002D01*
X1077250Y1070001D01*
X1077200Y1047951D01*
X1077197Y1047899D01*
X1077194Y1047847D01*
X1077192Y1047834D01*
X1077191Y1047820D01*
X1077181Y1047769D01*
X1077172Y1047718D01*
X1077168Y1047705D01*
X1077165Y1047692D01*
X1077148Y1047642D01*
X1077133Y1047593D01*
X1072333Y1035143D01*
X1072328Y1035132D01*
X1072324Y1035120D01*
X1072300Y1035072D01*
X1072278Y1035024D01*
X1072271Y1035013D01*
X1072266Y1035002D01*
X1072237Y1034958D01*
X1072208Y1034913D01*
X1072200Y1034903D01*
X1072193Y1034893D01*
X1072158Y1034854D01*
X1072124Y1034812D01*
X1072115Y1034804D01*
X1072106Y1034795D01*
X1072067Y1034760D01*
X1072027Y1034724D01*
X1072017Y1034716D01*
X1072008Y1034708D01*
X1071964Y1034679D01*
X1071920Y1034648D01*
X1071909Y1034642D01*
X1071899Y1034635D01*
X1071851Y1034612D01*
X1071804Y1034587D01*
X1071793Y1034583D01*
X1071781Y1034577D01*
X1071731Y1034560D01*
X1071681Y1034542D01*
X1071669Y1034539D01*
X1071657Y1034535D01*
X1071605Y1034525D01*
X1071553Y1034513D01*
X1071541Y1034512D01*
X1071529Y1034510D01*
X1071476Y1034506D01*
X1071423Y1034501D01*
X1071410Y1034502D01*
X1071398Y1034501D01*
X1057198D01*
X1057139Y1034505D01*
X1057078Y1034508D01*
X1057072Y1034509D01*
X1057067Y1034510D01*
X1057008Y1034522D01*
X1056949Y1034533D01*
X1056944Y1034534D01*
X1056939Y1034535D01*
X1056881Y1034555D01*
X1056824Y1034573D01*
X1056820Y1034576D01*
X1056814Y1034577D01*
X1056760Y1034604D01*
X1056706Y1034630D01*
X1056702Y1034633D01*
X1056697Y1034635D01*
X1056647Y1034669D01*
X1056597Y1034702D01*
X1056592Y1034705D01*
X1056588Y1034708D01*
X1056543Y1034748D01*
X1056497Y1034787D01*
X1056493Y1034791D01*
X1056489Y1034795D01*
X1056450Y1034840D01*
X1056410Y1034885D01*
X1056406Y1034889D01*
X1056403Y1034893D01*
X1056369Y1034944D01*
X1056336Y1034993D01*
X1056333Y1034998D01*
X1056330Y1035002D01*
X1056303Y1035057D01*
X1056276Y1035110D01*
X1056274Y1035115D01*
X1056272Y1035120D01*
X1056253Y1035178D01*
X1056233Y1035234D01*
X1056232Y1035239D01*
X1056230Y1035244D01*
X1056218Y1035303D01*
X1056206Y1035362D01*
X1056206Y1035367D01*
X1056204Y1035372D01*
X1056200Y1035432D01*
X1056196Y1035492D01*
X1056196Y1035498D01*
X1056196Y1035503D01*
X1056200Y1035562D01*
X1056203Y1035623D01*
X1056204Y1035629D01*
X1056204Y1035634D01*
X1056216Y1035694D01*
X1056227Y1035752D01*
X1056229Y1035757D01*
X1056230Y1035763D01*
X1056249Y1035820D01*
X1056268Y1035877D01*
X1061198Y1048154D01*
X1061496Y1070017D01*
X1061500Y1070075D01*
X1061504Y1070134D01*
X1061506Y1070141D01*
X1061506Y1070148D01*
X1061518Y1070205D01*
X1061530Y1070263D01*
X1061532Y1070269D01*
X1061534Y1070276D01*
X1061553Y1070331D01*
X1061572Y1070387D01*
X1061575Y1070393D01*
X1061577Y1070399D01*
X1061604Y1070452D01*
X1061630Y1070504D01*
X1061634Y1070510D01*
X1061637Y1070516D01*
X1061670Y1070565D01*
X1061703Y1070613D01*
X1061707Y1070619D01*
X1061711Y1070624D01*
X1061751Y1070668D01*
X1061789Y1070712D01*
X1061794Y1070716D01*
X1061799Y1070722D01*
X1061844Y1070760D01*
X1061888Y1070798D01*
X1061893Y1070802D01*
X1061899Y1070807D01*
X1061948Y1070838D01*
X1061997Y1070871D01*
X1062003Y1070874D01*
X1062009Y1070878D01*
X1062061Y1070903D01*
X1062114Y1070929D01*
X1062121Y1070931D01*
X1062127Y1070934D01*
X1062183Y1070952D01*
X1062238Y1070971D01*
X1062245Y1070973D01*
X1062252Y1070975D01*
X1062309Y1070985D01*
X1062367Y1070997D01*
X1062374Y1070997D01*
X1062381Y1070999D01*
X1062438Y1071002D01*
X1062498Y1071005D01*
X1076248D01*
X1076249Y1071005D01*
X1076250Y1071005D01*
X1076314Y1071001D01*
D02*
G37*
G36*
X1322000Y1194100D02*
X1127000D01*
Y1256600D01*
X1322000D01*
Y1194100D01*
D02*
G37*
G36*
X1152568Y1071001D02*
X1152629Y1070997D01*
X1152630Y1070996D01*
X1152633Y1070996D01*
X1152697Y1070983D01*
X1152757Y1070971D01*
X1152759Y1070971D01*
X1152761Y1070970D01*
X1152822Y1070949D01*
X1152881Y1070929D01*
X1152883Y1070928D01*
X1152885Y1070928D01*
X1152943Y1070899D01*
X1152999Y1070871D01*
X1153000Y1070870D01*
X1153002Y1070869D01*
X1153055Y1070834D01*
X1153108Y1070798D01*
X1153109Y1070797D01*
X1153111Y1070796D01*
X1153159Y1070753D01*
X1153206Y1070712D01*
X1153208Y1070711D01*
X1153209Y1070709D01*
X1153253Y1070659D01*
X1153293Y1070613D01*
X1153294Y1070612D01*
X1153295Y1070610D01*
X1153332Y1070554D01*
X1153366Y1070504D01*
X1153367Y1070503D01*
X1153368Y1070501D01*
X1153397Y1070441D01*
X1153424Y1070387D01*
X1153424Y1070385D01*
X1153425Y1070383D01*
X1153446Y1070321D01*
X1153466Y1070263D01*
X1153466Y1070261D01*
X1153467Y1070259D01*
X1153479Y1070195D01*
X1153491Y1070134D01*
X1153492Y1070132D01*
X1153492Y1070130D01*
X1153496Y1070065D01*
X1153500Y1070003D01*
X1153500Y1070001D01*
X1153500Y1069999D01*
X1153400Y1044449D01*
X1153397Y1044405D01*
X1153396Y1044360D01*
X1153392Y1044339D01*
X1153391Y1044319D01*
X1153382Y1044275D01*
X1153375Y1044231D01*
X1153369Y1044211D01*
X1153365Y1044190D01*
X1153350Y1044148D01*
X1153338Y1044105D01*
X1153329Y1044086D01*
X1153322Y1044066D01*
X1153302Y1044026D01*
X1153284Y1043985D01*
X1153273Y1043968D01*
X1153264Y1043949D01*
X1153239Y1043912D01*
X1153215Y1043874D01*
X1153202Y1043858D01*
X1153191Y1043840D01*
X1153161Y1043807D01*
X1153133Y1043772D01*
X1144833Y1034822D01*
X1144819Y1034809D01*
X1144807Y1034795D01*
X1144771Y1034764D01*
X1144737Y1034732D01*
X1144722Y1034721D01*
X1144708Y1034708D01*
X1144669Y1034682D01*
X1144631Y1034655D01*
X1144615Y1034646D01*
X1144599Y1034635D01*
X1144557Y1034615D01*
X1144516Y1034593D01*
X1144499Y1034586D01*
X1144482Y1034577D01*
X1144437Y1034562D01*
X1144394Y1034546D01*
X1144375Y1034541D01*
X1144357Y1034535D01*
X1144312Y1034526D01*
X1144266Y1034515D01*
X1144247Y1034513D01*
X1144229Y1034510D01*
X1144182Y1034507D01*
X1144136Y1034502D01*
X1144117Y1034502D01*
X1144098Y1034501D01*
X1125898D01*
X1125897Y1034501D01*
X1125896Y1034501D01*
X1125829Y1034506D01*
X1125767Y1034510D01*
X1125766Y1034510D01*
X1125765Y1034510D01*
X1125702Y1034523D01*
X1125639Y1034535D01*
X1125638Y1034536D01*
X1125637Y1034536D01*
X1125579Y1034556D01*
X1125515Y1034577D01*
X1125514Y1034578D01*
X1125513Y1034578D01*
X1125456Y1034606D01*
X1125397Y1034635D01*
X1125396Y1034636D01*
X1125395Y1034637D01*
X1125343Y1034672D01*
X1125288Y1034708D01*
X1125287Y1034709D01*
X1125286Y1034709D01*
X1125239Y1034751D01*
X1125189Y1034795D01*
X1125189Y1034796D01*
X1125188Y1034796D01*
X1125146Y1034844D01*
X1125103Y1034893D01*
X1125102Y1034894D01*
X1125102Y1034895D01*
X1125064Y1034952D01*
X1125030Y1035002D01*
X1125030Y1035003D01*
X1125029Y1035004D01*
X1124998Y1035068D01*
X1124972Y1035120D01*
X1124972Y1035121D01*
X1124971Y1035122D01*
X1124951Y1035182D01*
X1124930Y1035244D01*
X1124930Y1035245D01*
X1124930Y1035246D01*
X1124917Y1035312D01*
X1124904Y1035372D01*
X1124904Y1035373D01*
X1124904Y1035375D01*
X1124900Y1035444D01*
X1124896Y1035503D01*
X1124896Y1035504D01*
X1124896Y1035505D01*
X1124900Y1035573D01*
X1124904Y1035634D01*
X1124905Y1035635D01*
X1124905Y1035636D01*
X1124917Y1035699D01*
X1124930Y1035763D01*
X1124930Y1035764D01*
X1124930Y1035765D01*
X1124950Y1035823D01*
X1124972Y1035887D01*
X1124973Y1035888D01*
X1124973Y1035889D01*
X1125001Y1035945D01*
X1125030Y1036004D01*
X1125031Y1036005D01*
X1125031Y1036006D01*
X1125066Y1036059D01*
X1125103Y1036113D01*
X1125104Y1036114D01*
X1125104Y1036115D01*
X1125146Y1036162D01*
X1125189Y1036212D01*
X1125190Y1036213D01*
X1125191Y1036213D01*
X1137398Y1048372D01*
X1137496Y1070008D01*
X1137500Y1070071D01*
X1137504Y1070134D01*
X1137505Y1070136D01*
X1137505Y1070139D01*
X1137517Y1070199D01*
X1137530Y1070263D01*
X1137531Y1070265D01*
X1137531Y1070267D01*
X1137551Y1070326D01*
X1137572Y1070387D01*
X1137573Y1070389D01*
X1137574Y1070391D01*
X1137602Y1070447D01*
X1137630Y1070504D01*
X1137631Y1070506D01*
X1137632Y1070508D01*
X1137668Y1070562D01*
X1137703Y1070613D01*
X1137704Y1070615D01*
X1137706Y1070617D01*
X1137748Y1070665D01*
X1137789Y1070712D01*
X1137791Y1070714D01*
X1137793Y1070715D01*
X1137839Y1070755D01*
X1137888Y1070798D01*
X1137890Y1070800D01*
X1137891Y1070801D01*
X1137943Y1070835D01*
X1137997Y1070871D01*
X1137999Y1070872D01*
X1138001Y1070873D01*
X1138058Y1070901D01*
X1138114Y1070929D01*
X1138117Y1070930D01*
X1138119Y1070931D01*
X1138179Y1070951D01*
X1138239Y1070971D01*
X1138241Y1070972D01*
X1138243Y1070973D01*
X1138306Y1070985D01*
X1138367Y1070997D01*
X1138369Y1070997D01*
X1138372Y1070997D01*
X1138436Y1071001D01*
X1138498Y1071005D01*
X1152498D01*
X1152500Y1071005D01*
X1152502Y1071005D01*
X1152568Y1071001D01*
D02*
G37*
G36*
X1101560Y1071001D02*
X1101624Y1070997D01*
X1101626Y1070997D01*
X1101629Y1070997D01*
X1101691Y1070985D01*
X1101753Y1070973D01*
X1101755Y1070972D01*
X1101757Y1070971D01*
X1101818Y1070951D01*
X1101877Y1070931D01*
X1101879Y1070930D01*
X1101881Y1070929D01*
X1101939Y1070901D01*
X1101995Y1070873D01*
X1101997Y1070872D01*
X1101999Y1070871D01*
X1102050Y1070837D01*
X1102104Y1070801D01*
X1102106Y1070800D01*
X1102108Y1070798D01*
X1102155Y1070757D01*
X1102203Y1070715D01*
X1102205Y1070714D01*
X1102206Y1070712D01*
X1102248Y1070665D01*
X1102290Y1070617D01*
X1102291Y1070615D01*
X1102293Y1070613D01*
X1102327Y1070562D01*
X1102364Y1070508D01*
X1102365Y1070506D01*
X1102366Y1070504D01*
X1102394Y1070447D01*
X1102422Y1070391D01*
X1102423Y1070389D01*
X1102424Y1070387D01*
X1102444Y1070326D01*
X1102465Y1070267D01*
X1102465Y1070265D01*
X1102466Y1070263D01*
X1102478Y1070200D01*
X1102491Y1070139D01*
X1102491Y1070136D01*
X1102491Y1070134D01*
X1102495Y1070072D01*
X1102500Y1070008D01*
X1102600Y1047958D01*
X1102599Y1047937D01*
X1102599Y1047917D01*
X1102595Y1047871D01*
X1102592Y1047827D01*
X1102588Y1047807D01*
X1102586Y1047786D01*
X1102576Y1047742D01*
X1102567Y1047698D01*
X1102561Y1047679D01*
X1102556Y1047659D01*
X1102540Y1047617D01*
X1102525Y1047574D01*
X1102516Y1047555D01*
X1102509Y1047536D01*
X1096809Y1035086D01*
X1096787Y1035045D01*
X1096766Y1035002D01*
X1096756Y1034987D01*
X1096747Y1034971D01*
X1096719Y1034932D01*
X1096693Y1034893D01*
X1096681Y1034880D01*
X1096670Y1034865D01*
X1096638Y1034830D01*
X1096607Y1034795D01*
X1096593Y1034783D01*
X1096580Y1034769D01*
X1096544Y1034739D01*
X1096508Y1034708D01*
X1096493Y1034698D01*
X1096479Y1034687D01*
X1096438Y1034662D01*
X1096399Y1034635D01*
X1096383Y1034627D01*
X1096367Y1034618D01*
X1096324Y1034598D01*
X1096281Y1034577D01*
X1096264Y1034572D01*
X1096247Y1034564D01*
X1096202Y1034551D01*
X1096157Y1034535D01*
X1096139Y1034532D01*
X1096122Y1034527D01*
X1096075Y1034519D01*
X1096029Y1034510D01*
X1096011Y1034509D01*
X1095992Y1034506D01*
X1095945Y1034504D01*
X1095898Y1034501D01*
X1080898D01*
X1080847Y1034504D01*
X1080797Y1034506D01*
X1080782Y1034509D01*
X1080767Y1034510D01*
X1080718Y1034520D01*
X1080668Y1034528D01*
X1080653Y1034532D01*
X1080639Y1034535D01*
X1080590Y1034552D01*
X1080542Y1034566D01*
X1080529Y1034573D01*
X1080515Y1034577D01*
X1080469Y1034600D01*
X1080423Y1034621D01*
X1080410Y1034629D01*
X1080397Y1034635D01*
X1080355Y1034664D01*
X1080312Y1034690D01*
X1080300Y1034700D01*
X1080288Y1034708D01*
X1080250Y1034742D01*
X1080211Y1034774D01*
X1080201Y1034785D01*
X1080189Y1034795D01*
X1080156Y1034833D01*
X1080122Y1034870D01*
X1080113Y1034882D01*
X1080103Y1034893D01*
X1080075Y1034936D01*
X1080045Y1034977D01*
X1080039Y1034990D01*
X1080030Y1035002D01*
X1080008Y1035048D01*
X1079984Y1035092D01*
X1079979Y1035106D01*
X1079972Y1035120D01*
X1079956Y1035168D01*
X1079938Y1035215D01*
X1079935Y1035230D01*
X1079930Y1035244D01*
X1079920Y1035294D01*
X1079909Y1035343D01*
X1079907Y1035358D01*
X1079904Y1035372D01*
X1079901Y1035423D01*
X1079896Y1035473D01*
X1079897Y1035488D01*
X1079896Y1035503D01*
X1079899Y1035554D01*
X1079901Y1035604D01*
X1079903Y1035619D01*
X1079904Y1035634D01*
X1079914Y1035684D01*
X1079923Y1035734D01*
X1079927Y1035748D01*
X1079930Y1035763D01*
X1079946Y1035811D01*
X1079961Y1035859D01*
X1079967Y1035872D01*
X1079972Y1035887D01*
X1079995Y1035932D01*
X1080015Y1035978D01*
X1086595Y1048204D01*
X1086496Y1069999D01*
X1086496Y1070001D01*
X1086496Y1070003D01*
X1086500Y1070065D01*
X1086504Y1070130D01*
X1086504Y1070132D01*
X1086504Y1070134D01*
X1086517Y1070196D01*
X1086529Y1070258D01*
X1086529Y1070260D01*
X1086530Y1070263D01*
X1086550Y1070323D01*
X1086570Y1070383D01*
X1086571Y1070385D01*
X1086572Y1070387D01*
X1086600Y1070444D01*
X1086628Y1070500D01*
X1086629Y1070502D01*
X1086630Y1070504D01*
X1086665Y1070556D01*
X1086700Y1070610D01*
X1086702Y1070612D01*
X1086703Y1070613D01*
X1086744Y1070661D01*
X1086786Y1070709D01*
X1086788Y1070710D01*
X1086789Y1070712D01*
X1086837Y1070753D01*
X1086884Y1070796D01*
X1086886Y1070797D01*
X1086888Y1070798D01*
X1086940Y1070833D01*
X1086993Y1070869D01*
X1086995Y1070870D01*
X1086997Y1070871D01*
X1087054Y1070900D01*
X1087110Y1070927D01*
X1087112Y1070928D01*
X1087114Y1070929D01*
X1087175Y1070950D01*
X1087234Y1070970D01*
X1087236Y1070971D01*
X1087238Y1070971D01*
X1087302Y1070984D01*
X1087363Y1070996D01*
X1087365Y1070996D01*
X1087367Y1070997D01*
X1087430Y1071001D01*
X1087493Y1071005D01*
X1087496Y1071005D01*
X1087498Y1071005D01*
X1101498D01*
X1101560Y1071001D01*
D02*
G37*
G36*
X1127129Y1070997D02*
X1127257Y1070971D01*
X1127381Y1070929D01*
X1127499Y1070871D01*
X1127608Y1070798D01*
X1127707Y1070712D01*
X1127793Y1070613D01*
X1127866Y1070504D01*
X1127924Y1070387D01*
X1127966Y1070263D01*
X1127991Y1070134D01*
X1128000Y1070003D01*
X1128000Y1047953D01*
X1127999Y1047931D01*
X1127999Y1047909D01*
X1127994Y1047866D01*
X1127991Y1047822D01*
X1127987Y1047801D01*
X1127985Y1047779D01*
X1127974Y1047737D01*
X1127966Y1047694D01*
X1127959Y1047673D01*
X1127954Y1047652D01*
X1127938Y1047611D01*
X1127924Y1047570D01*
X1127914Y1047550D01*
X1127906Y1047530D01*
X1127885Y1047491D01*
X1127866Y1047452D01*
X1127854Y1047434D01*
X1127843Y1047415D01*
X1127817Y1047380D01*
X1127793Y1047343D01*
X1127778Y1047327D01*
X1127766Y1047309D01*
X1119900Y1037939D01*
Y1035503D01*
X1119892Y1035372D01*
X1119866Y1035244D01*
X1119824Y1035120D01*
X1119766Y1035002D01*
X1119693Y1034893D01*
X1119607Y1034795D01*
X1119508Y1034708D01*
X1119399Y1034635D01*
X1119281Y1034577D01*
X1119157Y1034535D01*
X1119029Y1034510D01*
X1118898Y1034501D01*
X1103898D01*
X1103844Y1034505D01*
X1103790Y1034507D01*
X1103779Y1034509D01*
X1103767Y1034510D01*
X1103714Y1034520D01*
X1103661Y1034530D01*
X1103650Y1034533D01*
X1103639Y1034535D01*
X1103587Y1034553D01*
X1103536Y1034569D01*
X1103525Y1034574D01*
X1103514Y1034577D01*
X1103466Y1034602D01*
X1103417Y1034624D01*
X1103408Y1034630D01*
X1103397Y1034635D01*
X1103352Y1034666D01*
X1103307Y1034694D01*
X1103298Y1034702D01*
X1103288Y1034708D01*
X1103247Y1034744D01*
X1103206Y1034778D01*
X1103198Y1034787D01*
X1103189Y1034795D01*
X1103154Y1034835D01*
X1103117Y1034875D01*
X1103111Y1034884D01*
X1103103Y1034893D01*
X1103073Y1034938D01*
X1103042Y1034982D01*
X1103036Y1034993D01*
X1103030Y1035002D01*
X1103006Y1035050D01*
X1102981Y1035098D01*
X1102977Y1035109D01*
X1102972Y1035120D01*
X1102955Y1035171D01*
X1102936Y1035221D01*
X1102934Y1035233D01*
X1102930Y1035244D01*
X1102919Y1035297D01*
X1102908Y1035349D01*
X1102907Y1035361D01*
X1102904Y1035372D01*
X1102901Y1035426D01*
X1102896Y1035480D01*
X1102897Y1035492D01*
X1102896Y1035503D01*
X1102899Y1035557D01*
X1102902Y1035611D01*
X1102904Y1035623D01*
X1102904Y1035634D01*
X1102915Y1035687D01*
X1102924Y1035740D01*
X1102928Y1035751D01*
X1102930Y1035763D01*
X1102947Y1035814D01*
X1102963Y1035865D01*
X1102968Y1035876D01*
X1102972Y1035887D01*
X1102996Y1035935D01*
X1103019Y1035984D01*
X1103025Y1035994D01*
X1103030Y1036004D01*
X1103060Y1036049D01*
X1103089Y1036095D01*
X1111996Y1048280D01*
X1111996Y1070003D01*
X1112004Y1070134D01*
X1112030Y1070263D01*
X1112072Y1070387D01*
X1112130Y1070504D01*
X1112203Y1070613D01*
X1112289Y1070712D01*
X1112388Y1070798D01*
X1112497Y1070871D01*
X1112614Y1070929D01*
X1112738Y1070971D01*
X1112867Y1070997D01*
X1112998Y1071005D01*
X1126998D01*
X1127129Y1070997D01*
D02*
G37*
D27*
X1153100Y1693150D02*
D03*
X949250Y1390000D02*
D03*
X951750Y1687500D02*
D03*
X1167250Y1383500D02*
D03*
D52*
X1349754Y1965255D02*
D03*
X1301000Y1965000D02*
D03*
X698250Y1966255D02*
D03*
X744500D02*
D03*
X790500D02*
D03*
X836250D02*
D03*
X882000D02*
D03*
X928000D02*
D03*
X974000D02*
D03*
X1020009D02*
D03*
D60*
X1145998Y1055003D02*
D03*
X1119998D02*
D03*
X1094998D02*
D03*
X1068998D02*
D03*
X1043998D02*
D03*
D61*
X1005698Y1054004D02*
D03*
X980998D02*
D03*
D62*
X949000Y1318500D02*
D03*
Y1343900D02*
D03*
X952250Y1617250D02*
D03*
Y1642650D02*
D03*
X1047500Y1452750D02*
D03*
Y1478150D02*
D03*
X1178500Y1642350D02*
D03*
Y1667750D02*
D03*
Y1693150D02*
D03*
X1153100Y1642350D02*
D03*
Y1667750D02*
D03*
X949250Y1466200D02*
D03*
Y1440800D02*
D03*
Y1415400D02*
D03*
X951750Y1712900D02*
D03*
Y1738300D02*
D03*
Y1763700D02*
D03*
X1045000Y1773100D02*
D03*
Y1798500D02*
D03*
X1167250Y1358100D02*
D03*
Y1332700D02*
D03*
X1192650Y1383500D02*
D03*
Y1358100D02*
D03*
Y1332700D02*
D03*
D63*
X699750Y1148750D02*
D03*
X594000Y1149000D02*
D03*
D64*
X699750Y1098750D02*
D03*
X594000Y1099000D02*
D03*
D65*
X1336000Y1870750D02*
D03*
Y1809750D02*
D03*
D66*
X1310600Y1870750D02*
D03*
X1234400D02*
D03*
X1183600D02*
D03*
X1310600Y1809750D02*
D03*
X1234400D02*
D03*
X1183600D02*
D03*
D67*
X1517877Y1796481D02*
D03*
Y1906480D02*
D03*
Y1856480D02*
D03*
Y1746480D02*
D03*
X1517755Y1521998D02*
D03*
Y1631998D02*
D03*
Y1681998D02*
D03*
Y1571998D02*
D03*
X595996Y1515500D02*
D03*
Y1625500D02*
D03*
Y1675500D02*
D03*
Y1565500D02*
D03*
X595995Y1291250D02*
D03*
Y1401250D02*
D03*
Y1451250D02*
D03*
Y1341250D02*
D03*
X595996Y1740164D02*
D03*
Y1850164D02*
D03*
Y1900164D02*
D03*
Y1790164D02*
D03*
D68*
X1226373Y1970877D02*
D03*
X1182123Y1970627D02*
D03*
X1113994Y1970877D02*
D03*
X1069744Y1970627D02*
D03*
D69*
X1324353Y1939855D02*
D03*
X1349754D02*
D03*
X1324353Y1965255D02*
D03*
X1275600Y1939600D02*
D03*
X1301000D02*
D03*
X1275600Y1965000D02*
D03*
X672850Y1940855D02*
D03*
X698250D02*
D03*
X672850Y1966255D02*
D03*
X719100D02*
D03*
X744500Y1940855D02*
D03*
X719100D02*
D03*
X765100Y1966255D02*
D03*
X790500Y1940855D02*
D03*
X765100D02*
D03*
X810850Y1966255D02*
D03*
X836250Y1940855D02*
D03*
X810850D02*
D03*
X856600D02*
D03*
X882000D02*
D03*
X856600Y1966255D02*
D03*
X902600Y1940855D02*
D03*
X928000D02*
D03*
X902600Y1966255D02*
D03*
X948600Y1940855D02*
D03*
X974000D02*
D03*
X948600Y1966255D02*
D03*
X994609Y1940855D02*
D03*
X1020009D02*
D03*
X994609Y1966255D02*
D03*
D70*
X894998Y1065003D02*
D03*
M02*
