G04*
G04 #@! TF.GenerationSoftware,Altium Limited,Altium Designer,20.0.11 (256)*
G04*
G04 Layer_Color=16711935*
%FSLAX44Y44*%
%MOMM*%
G71*
G01*
G75*
%ADD10C,0.1000*%
D10*
X1646001Y1520997D02*
G03*
X1636504Y1511500I0J-9496D01*
G01*
Y1498500D02*
G03*
X1646001Y1489004I9496J0D01*
G01*
X851200Y989496D02*
G03*
X851697Y989917I0J504D01*
G01*
X854712Y1007244D02*
G03*
X854719Y1007334I-496J90D01*
G01*
X856610Y1011897D02*
G03*
X854719Y1007334I4564J-4564D01*
G01*
X856610Y1011897D02*
G03*
X856613Y1011900I-356J356D01*
G01*
X858220Y1013507D02*
G03*
X858224Y1013511I-352J360D01*
G01*
X866033Y1016746D02*
G03*
X858224Y1013511I0J-11044D01*
G01*
X866033Y1016746D02*
G03*
X866041Y1016746I0J504D01*
G01*
X875128Y1015660D02*
G03*
X872500Y1016746I-2628J-2634D01*
G01*
X875131Y1015656D02*
G03*
X875128Y1015660I-2631J-2631D01*
G01*
X875391Y1015397D02*
G03*
X875750Y1015246I359J353D01*
G01*
X876386Y1014983D02*
G03*
X875750Y1015246I-636J-636D01*
G01*
X876386Y1014983D02*
G03*
X876390Y1014978I356J356D01*
G01*
X881496Y1006546D02*
G03*
X879144Y1012225I-8032J0D01*
G01*
X881496Y994768D02*
G03*
X882894Y991394I4772J0D01*
G01*
X882894Y991394D02*
G03*
X886871Y989746I3978J3978D01*
G01*
X907500D02*
G03*
X907681Y989780I0J504D01*
G01*
X910931Y991030D02*
G03*
X911207Y991287I-181J470D01*
G01*
X911206Y991285D02*
G03*
X911207Y991288I-456J214D01*
G01*
X912956Y995035D02*
G03*
X912957Y995038I-456J214D01*
G01*
X912956Y995037D02*
G03*
X913004Y995250I-457J213D01*
G01*
X916388Y1075926D02*
G03*
X913004Y1067750I8183J-8176D01*
G01*
X916392Y1075929D02*
G03*
X916388Y1075926I8179J-8179D01*
G01*
X916392Y1075929D02*
G03*
X916395Y1075932I-356J356D01*
G01*
X916603Y1076141D02*
G03*
X916606Y1076144I-353J359D01*
G01*
X924096Y1079246D02*
G03*
X916606Y1076144I0J-10592D01*
G01*
X949176Y1075862D02*
G03*
X941000Y1079246I-8176J-8183D01*
G01*
X949176Y1075862D02*
G03*
X949179Y1075858I360J353D01*
G01*
X950391Y1074647D02*
G03*
X950394Y1074644I359J353D01*
G01*
X952246Y1070172D02*
G03*
X950394Y1074644I-6325J0D01*
G01*
X950147Y1060860D02*
G03*
X952246Y1065932I-5079J5072D01*
G01*
X950147Y1060860D02*
G03*
X950144Y1060856I353J-360D01*
G01*
X947679Y1058391D02*
G03*
X947496Y1058003I321J-388D01*
G01*
X947394Y1041356D02*
G03*
X947496Y1041604I-247J247D01*
G01*
X947394Y1041356D02*
G03*
X947246Y1041000I356J-356D01*
G01*
Y1036268D02*
G03*
X948644Y1032894I4772J0D01*
G01*
X948644Y1032894D02*
G03*
X953828Y1030746I5185J5185D01*
G01*
X1185644Y1027144D02*
G03*
X1176947Y1030746I-8697J-8697D01*
G01*
X1185644Y1027144D02*
G03*
X1185647Y1027141I356J356D01*
G01*
X1186238Y1026549D02*
G03*
X1186235Y1026553I-5222J-5216D01*
G01*
X1188397Y1021334D02*
G03*
X1186238Y1026549I-7381J0D01*
G01*
X1188397Y1021334D02*
G03*
X1188404Y1021248I504J0D01*
G01*
X1188404Y1021249D02*
G03*
X1188404Y1021247I497J85D01*
G01*
X1190104Y1011415D02*
G03*
X1190104Y1011413I497J85D01*
G01*
X1190104Y1011414D02*
G03*
X1190600Y1010996I496J86D01*
G01*
X1259497Y999500D02*
G03*
X1248000Y1010996I-11496J0D01*
G01*
X1259497Y990000D02*
G03*
X1260000Y989496I504J0D01*
G01*
X1462000D02*
G03*
X1462151Y989519I0J504D01*
G01*
X1651145Y1047300D02*
G03*
X1651504Y1047783I-144J483D01*
G01*
Y1276500D02*
G03*
X1651001Y1277004I-504J0D01*
G01*
X1636504Y1286500D02*
G03*
X1646001Y1277004I9496J0D01*
G01*
Y1295996D02*
G03*
X1636504Y1286500I0J-9496D01*
G01*
X1651001Y1295996D02*
G03*
X1651504Y1296500I0J504D01*
G01*
Y1488500D02*
G03*
X1651001Y1489004I-504J0D01*
G01*
X1651504Y2016001D02*
G03*
X1651354Y2016360I-504J0D01*
G01*
X1646360Y2021354D02*
G03*
X1646001Y2021504I-359J-353D01*
G01*
X468000D02*
G03*
X467641Y2021354I0J-504D01*
G01*
X462647Y2016360D02*
G03*
X462496Y2016001I353J-359D01*
G01*
X463000Y1277004D02*
G03*
X462496Y1276500I0J-504D01*
G01*
Y1015734D02*
G03*
X462543Y1015521I504J0D01*
G01*
X474543Y989787D02*
G03*
X475000Y989496I457J213D01*
G01*
X1651255Y1719998D02*
Y1741998D01*
X1548450Y1656515D02*
X1651255Y1719998D01*
X1546517Y1655029D02*
X1548450Y1656515D01*
X1544924Y1653184D02*
X1546517Y1655029D01*
X1543736Y1651055D02*
X1544924Y1653184D01*
X1543003Y1648730D02*
X1543736Y1651055D01*
X1542755Y1646305D02*
X1543003Y1648730D01*
X1542755Y1640942D02*
Y1646305D01*
X1541065Y1639076D02*
X1542755Y1640942D01*
X1539801Y1636897D02*
X1541065Y1639076D01*
X1539019Y1634503D02*
X1539801Y1636897D01*
X1538755Y1631998D02*
X1539019Y1634503D01*
X1538755Y1616998D02*
Y1631998D01*
Y1616998D02*
X1539019Y1614493D01*
X1539801Y1612099D01*
X1541065Y1609921D01*
X1542755Y1608054D01*
Y1541598D02*
Y1608054D01*
Y1541598D02*
X1542997Y1539200D01*
X1543713Y1536900D01*
X1544874Y1534788D01*
X1546434Y1532952D01*
X1548329Y1531463D01*
X1577618Y1512890D01*
X1579960Y1511740D01*
X1582495Y1511125D01*
X1585103Y1511071D01*
X1587661Y1511582D01*
X1590048Y1512634D01*
X1628755Y1534998D01*
X1637755D01*
X1645981Y1520984D01*
X462495Y1489250D02*
Y1505912D01*
Y1489250D02*
X565300Y1425767D01*
X567234Y1424282D01*
X568827Y1422437D01*
X570015Y1420307D01*
X570748Y1417982D01*
X570996Y1415557D01*
Y1410194D02*
Y1415557D01*
Y1410194D02*
X572686Y1408327D01*
X573950Y1406149D01*
X574731Y1403755D01*
X574995Y1401250D01*
Y1386250D02*
Y1401250D01*
X574731Y1383745D02*
X574995Y1386250D01*
X573950Y1381351D02*
X574731Y1383745D01*
X572686Y1379173D02*
X573950Y1381351D01*
X570996Y1377306D02*
X572686Y1379173D01*
X570996Y1310850D02*
Y1377306D01*
X570754Y1308453D02*
X570996Y1310850D01*
X570037Y1306152D02*
X570754Y1308453D01*
X568877Y1304041D02*
X570037Y1306152D01*
X567317Y1302204D02*
X568877Y1304041D01*
X565422Y1300716D02*
X567317Y1302204D01*
X536133Y1282142D02*
X565422Y1300716D01*
X533791Y1280993D02*
X536133Y1282142D01*
X531256Y1280376D02*
X533791Y1280993D01*
X528648Y1280323D02*
X531256Y1280376D01*
X526090Y1280834D02*
X528648Y1280323D01*
X523703Y1281886D02*
X526090Y1280834D01*
X484995Y1304250D02*
X523703Y1281886D01*
X475995Y1304250D02*
X484995D01*
X462495Y1281250D02*
X475995Y1304250D01*
X462495Y1266250D02*
Y1281250D01*
Y1713500D02*
Y1729750D01*
Y1713500D02*
X565300Y1650017D01*
X567234Y1648532D01*
X568827Y1646687D01*
X570015Y1644557D01*
X570748Y1642232D01*
X570996Y1639807D01*
Y1634444D02*
Y1639807D01*
Y1634444D02*
X572686Y1632577D01*
X573950Y1630399D01*
X574731Y1628005D01*
X574995Y1625500D01*
Y1610500D02*
Y1625500D01*
X574731Y1607995D02*
X574995Y1610500D01*
X573950Y1605601D02*
X574731Y1607995D01*
X572686Y1603423D02*
X573950Y1605601D01*
X570996Y1601556D02*
X572686Y1603423D01*
X570996Y1535100D02*
Y1601556D01*
X570754Y1532702D02*
X570996Y1535100D01*
X570037Y1530402D02*
X570754Y1532702D01*
X568877Y1528291D02*
X570037Y1530402D01*
X567317Y1526454D02*
X568877Y1528291D01*
X565422Y1524966D02*
X567317Y1526454D01*
X536133Y1506392D02*
X565422Y1524966D01*
X533791Y1505243D02*
X536133Y1506392D01*
X531256Y1504626D02*
X533791Y1505243D01*
X528648Y1504573D02*
X531256Y1504626D01*
X526090Y1505084D02*
X528648Y1504573D01*
X523703Y1506136D02*
X526090Y1505084D01*
X484996Y1528500D02*
X523703Y1506136D01*
X475995Y1528500D02*
X484996D01*
X462495Y1505500D02*
X475995Y1528500D01*
X462495Y1490500D02*
Y1505500D01*
Y1938164D02*
Y1960164D01*
Y1938164D02*
X565300Y1874680D01*
X567234Y1873196D01*
X568827Y1871351D01*
X570015Y1869221D01*
X570748Y1866896D01*
X570996Y1864471D01*
Y1859108D02*
Y1864471D01*
Y1859108D02*
X572686Y1857241D01*
X573950Y1855063D01*
X574731Y1852668D01*
X574995Y1850164D01*
Y1835164D02*
Y1850164D01*
X574731Y1832659D02*
X574995Y1835164D01*
X573950Y1830265D02*
X574731Y1832659D01*
X572686Y1828086D02*
X573950Y1830265D01*
X570996Y1826220D02*
X572686Y1828086D01*
X570996Y1759764D02*
Y1826220D01*
X570754Y1757366D02*
X570996Y1759764D01*
X570037Y1755066D02*
X570754Y1757366D01*
X568877Y1752955D02*
X570037Y1755066D01*
X567317Y1751118D02*
X568877Y1752955D01*
X565422Y1749630D02*
X567317Y1751118D01*
X536133Y1731056D02*
X565422Y1749630D01*
X533791Y1729907D02*
X536133Y1731056D01*
X531256Y1729290D02*
X533791Y1729907D01*
X528648Y1729237D02*
X531256Y1729290D01*
X526090Y1729748D02*
X528648Y1729237D01*
X523703Y1730800D02*
X526090Y1729748D01*
X484996Y1753164D02*
X523703Y1730800D01*
X475995Y1753164D02*
X484996D01*
X462495Y1730164D02*
X475995Y1753164D01*
X462495Y1715164D02*
Y1730164D01*
X1651377Y1944480D02*
Y1958501D01*
X1548572Y1880997D02*
X1651377Y1944480D01*
X1546638Y1879512D02*
X1548572Y1880997D01*
X1545045Y1877667D02*
X1546638Y1879512D01*
X1543858Y1875538D02*
X1545045Y1877667D01*
X1543125Y1873212D02*
X1543858Y1875538D01*
X1542877Y1870787D02*
X1543125Y1873212D01*
X1542877Y1865425D02*
Y1870787D01*
X1541186Y1863558D02*
X1542877Y1865425D01*
X1539923Y1861379D02*
X1541186Y1863558D01*
X1539141Y1858985D02*
X1539923Y1861379D01*
X1538877Y1856480D02*
X1539141Y1858985D01*
X1538877Y1841480D02*
Y1856480D01*
Y1841480D02*
X1539141Y1838976D01*
X1539923Y1836582D01*
X1541186Y1834403D01*
X1542877Y1832536D01*
Y1766080D02*
Y1832536D01*
Y1766080D02*
X1543119Y1763683D01*
X1543835Y1761382D01*
X1544996Y1759270D01*
X1546556Y1757434D01*
X1548450Y1755946D01*
X1577740Y1737372D01*
X1580082Y1736223D01*
X1582616Y1735607D01*
X1585224Y1735553D01*
X1587782Y1736064D01*
X1590170Y1737116D01*
X1628877Y1759480D01*
X1637877D01*
X1651377Y1736480D01*
Y1721480D02*
Y1736480D01*
X1646001Y1489004D02*
X1651001D01*
X1636504Y1498500D02*
Y1511500D01*
X475000Y989496D02*
X851200D01*
X851697Y989917D02*
X854712Y1007244D01*
X854712Y1007247D01*
X854712Y1007244D02*
X854712Y1007247D01*
X856610Y1011897D02*
X856613Y1011900D01*
X856610Y1011897D02*
X858224Y1013511D01*
X858220Y1013507D02*
X858224Y1013511D01*
X866033Y1016746D02*
X866040D01*
X866033D02*
X872500D01*
X875131Y1015657D02*
X875394Y1015394D01*
X875391Y1015396D02*
X875394Y1015394D01*
X876386Y1014983D02*
X876390Y1014978D01*
X876386Y1014983D02*
X879144Y1012225D01*
X881496Y994768D02*
Y1006546D01*
X886871Y989746D02*
X907500D01*
X907681Y989780D02*
X910931Y991030D01*
X911207Y991287D02*
X911207Y991288D01*
X911206Y991285D02*
X911207Y991288D01*
X912956Y995035D01*
X912957Y995038D01*
X912956Y995035D02*
X912957Y995038D01*
X912957Y995037D02*
X912957Y995038D01*
X913004Y995250D02*
Y1067750D01*
X916392Y1075929D02*
X916395Y1075932D01*
X916392Y1075929D02*
X916606Y1076144D01*
X916603Y1076141D02*
X916606Y1076144D01*
X924096Y1079246D02*
X941000D01*
X949179Y1075858D02*
X950394Y1074644D01*
X950391Y1074647D02*
X950394Y1074644D01*
Y1074643D02*
Y1074644D01*
X952246Y1065932D02*
Y1070172D01*
X947679Y1058392D02*
X950144Y1060856D01*
X947496Y1041604D02*
Y1058003D01*
X947246Y1036268D02*
Y1041000D01*
X953828Y1030746D02*
X1176947D01*
X1185644Y1027144D02*
X1185647Y1027141D01*
X1185644Y1027144D02*
X1186235Y1026553D01*
X1188404Y1021247D02*
Y1021248D01*
X1188403Y1021249D02*
X1188404Y1021247D01*
X1190104Y1011415D01*
Y1011414D02*
X1190104Y1011413D01*
X1190601Y1010996D02*
X1248001D01*
X1259497Y990000D02*
Y999500D01*
X1260001Y989496D02*
X1462001D01*
X1462148Y989519D02*
X1462151Y989519D01*
X1462148Y989519D02*
X1462151Y989519D01*
X1651145Y1047300D01*
X1651148Y1047301D01*
X1651145Y1047300D02*
X1651148Y1047301D01*
X1651504Y1047783D02*
Y1276500D01*
X1646001Y1277004D02*
X1651001D01*
X1646001Y1295996D02*
X1651001D01*
X1651504Y1296500D02*
Y1488501D01*
Y1958501D02*
Y2016001D01*
X1651354Y2016360D02*
X1651357Y2016357D01*
X1646357Y2021357D02*
X1651357Y2016357D01*
X1646357Y2021357D02*
X1646360Y2021354D01*
X468000Y2021504D02*
X1646001D01*
X467641Y2021354D02*
X467644Y2021357D01*
X462644Y2016357D02*
X467644Y2021357D01*
X462644Y2016357D02*
X462647Y2016360D01*
X462496Y1958501D02*
Y2016001D01*
Y1015734D02*
Y1276500D01*
X462543Y1015521D02*
X474544Y989787D01*
M02*
