G04*
G04 #@! TF.GenerationSoftware,Altium Limited,Altium Designer,20.0.11 (256)*
G04*
G04 Layer_Color=32896*
%FSLAX44Y44*%
%MOMM*%
G71*
G01*
G75*
%ADD127C,0.2540*%
D127*
X1592250Y1716985D02*
X1582093Y1701750D01*
Y1716985D02*
X1592250Y1701750D01*
X1566858D02*
X1577015D01*
X1566858Y1711907D01*
Y1714446D01*
X1569397Y1716985D01*
X1574476D01*
X1577015Y1714446D01*
X567750Y1486235D02*
X557593Y1471000D01*
Y1486235D02*
X567750Y1471000D01*
X544897D02*
Y1486235D01*
X552515Y1478618D01*
X542358D01*
X574000Y1711985D02*
X563843Y1696750D01*
Y1711985D02*
X574000Y1696750D01*
X558765Y1709446D02*
X556226Y1711985D01*
X551147D01*
X548608Y1709446D01*
Y1706907D01*
X551147Y1704368D01*
X553687D01*
X551147D01*
X548608Y1701828D01*
Y1699289D01*
X551147Y1696750D01*
X556226D01*
X558765Y1699289D01*
X516000Y1982485D02*
X505843Y1967250D01*
Y1982485D02*
X516000Y1967250D01*
X490608Y1982485D02*
X500765D01*
Y1974868D01*
X495687Y1977407D01*
X493147D01*
X490608Y1974868D01*
Y1969789D01*
X493147Y1967250D01*
X498226D01*
X500765Y1969789D01*
X1560000Y1941235D02*
X1549843Y1926000D01*
Y1941235D02*
X1560000Y1926000D01*
X1544765D02*
X1539687D01*
X1542226D01*
Y1941235D01*
X1544765Y1938696D01*
M02*
