M48
;Layer_Color=9474304
;FILE_FORMAT=2:5
INCH,LZ
;TYPE=PLATED
T1F00S00C0.01181
T2F00S00C0.02756
T3F00S00C0.02800
T4F00S00C0.03150
T5F00S00C0.03937
T6F00S00C0.05512
;TYPE=NON_PLATED
T7F00S00C0.08268
%
T01
X0408169Y0452658
X058376Y0458268
X0625Y0495276
X0622342Y0506201
X0580807Y0474508
X0548032Y0481004
X0544882
X052559Y0484252
X0519685Y0496063
X0507874
X0496063
X0484252
X0472441
X0473425Y0516929
X0496063Y0519685
X0499902Y0523032
X050748Y0516732
X0501968Y0507874
X0513779
X052559
X0490157
X0510925Y0539567
X0507874Y0543307
X0519685
X0513779Y0555118
X0501968
X0507874Y0566929
X0519685
X052559Y057874
Y0602362
X0519685Y0614173
X0507874
X0496063
X0484252
X0488583Y0605315
X0484252Y058376
X0489468Y0570571
X0495965Y0574606
X0472441Y0566929
X0470374Y0594095
X0562598Y0588583
X0568701Y0580905
X0566732Y0598721
X0578543Y0595866
X046063Y0590551
X0448819
X0454724Y0602362
X0448819Y0614173
X0437598Y0615059
X0426772Y0615059
X0431102Y0602362
X0424705Y0591929
X0420571Y0592126
X0411909Y0597047
X0394882Y0592717
X0381219Y0592647
X0383465Y0597146
X0383858Y0602362
X0363779Y0593602
X036437Y0575591
X0354823Y0573228
X0354331Y0566929
X0349016Y0578051
X0337598Y057815
X0333465Y0575492
X0335236Y0568799
X0336122Y0564075
X0336319Y0556398
X033937Y0553346
X0333957Y0551181
X0329035Y0558465
X0321555Y0554429
X031437Y0555512
X0320374Y0546063
X0331201Y0540453
X033376Y0536024
X0336614Y0531496
X0324803
X0342717Y0524902
X034252Y0519685
X0354331
X0351575Y0507776
X0351772Y0503839
X0343012Y0502756
X0338189Y0503051
X0337205Y0508071
X0334502Y0511319
X0331102Y050748
X0330709Y0496063
X0331693Y0486909
X0336614Y0484252
X0343504Y0490059
X0346457Y0493504
X0352067Y0493405
X0366142Y0496063
X0366339Y0511319
X0360236Y0507874
X0343701Y0507972
X0319783Y0510335
X0319882Y0487992
X0318898Y0472441
X0330709
X034252
X0354331
X0366142
X0377953
X0383858Y0484252
Y0507874
X0392224Y0510306
X0401575Y0519685
X0408858Y0519488
X040748Y0531496
X0414665Y0534252
X0421063Y0535236
X0423721Y0525787
X0425098Y0505512
X0432283
X0424016Y0495079
X0431102Y0484252
X0442913
X0448819Y0496063
X046063
X0466535Y0507874
X0454724
X0450295Y0508858
X0443799Y054439
X0442913Y0555118
X0454724
X0466535
X046063Y0566929
X0448819
X0437008
X0442913Y057874
X0454724
X0466535
X0419488Y0570276
X0416732Y0565551
X0409252Y0566929
X0404688Y0572109
X0402461Y0569882
X0409842Y0576968
X0395669Y057874
X03875Y0572539
X0380709Y0558563
X0380512Y0549409
X0390748Y0551476
X039746Y0546877
X0400984Y0537008
X0408858Y0543799
X0387697Y0538681
X0384055Y0537008
X0376083Y0540551
X0366142Y0543307
X0364272Y055315
X0360236Y0555118
X0350411Y0553373
X0344013Y0559673
X0354331Y0543307
X0360236Y0531496
X038002Y0526772
X0387795Y0525098
X0423228Y0557874
X0422441Y0561713
X0431102Y0555118
X0437008Y0472441
X0417618Y0479134
X0409646Y0477362
X0360236Y0484252
X0320374Y0568405
X0317618Y0579331
X0329626Y0581004
X033061Y0594488
X0324016Y0601279
X0320079Y0598425
X0323917Y060876
X0318209Y0611221
X032815Y0624114
X0335925Y0616831
X0354035Y0616634
X0366142Y0614173
X0279724Y0606594
X0282579Y0601772
X0283661Y0580217
X0278543Y0563976
X0278839Y0549016
X0278543Y0535335
X0282087Y0520571
X0277953Y050502
X0279823Y0491831
X0278445Y0476772
X0259449Y0608268
X027126Y0625295
X0277559Y0641339
X0277854Y0655807
X0277362Y0670571
X0280709Y068563
X0277559Y0700098
X0278051Y0713976
X0277264Y0727756
X028061Y0743898
X0283465Y0779527
X0295275
X0307086
X0271654
X0318898
X0330709
X034252
X0354331
X0366142
X0377953
X0389764
X0401575
X0413386
X0425197
X0419291Y0767716
X0413386Y0755905
X0401575
X040748Y0744094
X0395669
X0385335Y0737992
X0389764Y0732283
X0395669Y0720472
X040748
X0419291
X0425197Y0732283
X0413386
X0424705Y0755217
X0429727Y0756788
X0431954Y0754561
X0448819Y0755905
X046063
X0466535Y0744094
X046063Y0732283
X0466535Y0720472
X046063Y0708661
X0466535Y069685
X0442913
X0431102
X0425197Y0685039
X0426772Y0679331
X0416732Y0676181
X0418307Y067313
X0408366Y0673371
X0410827Y0682677
X0414173Y0686024
X0404429Y0685138
X0404626Y0688583
X0400197Y0696654
X0397736Y0707087
X0391732Y0706693
X0380413Y0715551
X0374016Y0714567
X0367518Y0715254
X0358268Y0714567
X0352559Y0715256
X0346457Y0714567
X0343602Y0718012
X0345785Y0701904
X0354331Y0702756
X0352658Y0696063
X0364173Y0694882
X0366142Y0702756
X0358268Y0688976
Y0685039
Y0681102
X0364173Y0675197
X036811Y0677165
X0367224Y0661516
X0372441Y0654035
X0384369Y065456
X0382185Y0656988
X0379841Y0661351
X0392224Y0664862
X0400492Y0656201
X0404626Y0652264
X0415354Y0646654
X0414468Y0639567
X0396457Y0641732
X0384074Y0643535
X0380709Y0644488
X0360728Y0644685
X0354724Y0648622
X0354823Y0657283
X0357874Y0655315
X0345292Y0657315
X034252Y0652264
X0340354Y0642028
X0331583Y0643515
X0331299Y064685
X0331485Y0650284
X0330709Y0637795
X0332283Y063435
X0327362Y0633957
X0327854Y0631398
X0322638Y0627658
X0338681Y0631496
X0356021Y0627786
X0390453Y0633071
X0426673Y0627362
X0431102Y0625984
X0445079Y0637697
X0453248Y0636024
X0456398Y0640059
X0435925Y0652067
X0433169Y0650197
X0434941Y0669095
X0436221Y0675197
X0454724Y0673228
X046063Y0779527
X0448819
X0385529Y0752756
X0382379
X0379229
X037608
X0371317
X0368167
X0365018
X0361868
X0360236Y0767716
X0358858Y0736319
X0330709Y0732283
X0330512Y0726673
X0329823Y070994
X0329921Y0704035
X0318996Y0711319
X0317028Y071998
X0319094Y0734252
X0324803Y0744094
X0312992
X0318406Y0696358
X0318898Y0685039
X0318602Y0674705
X0318898Y0661417
X0318898Y0651772
X0332972Y0663583
X0329823Y0669685
X0331398Y0676181
X0345669Y0684449
X047185Y0668504
X0472441Y0661417
X0478346Y0660236
X0476378Y0655512
X0478248Y064439
X0473019Y0634658
X0475246Y0632431
X0490157Y0625984
X0501968
X0513779
X052559
X0519685Y0637795
X052559Y0649606
Y0673228
X0501968
X0499311Y0665846
X0501968Y0649606
X0496063Y0637795
X0484055Y0673228
X0480512Y0669882
X0486122Y0678248
X049911Y0690547
X0503445Y0689567
X0565158Y0687264
X0574114Y0660451
X0564102Y0644717
X0584449Y0727658
X057126Y0748032
X054626Y0733169
X0531496Y0779527
X0519685
X0507874
X0496063
Y0755905
X0484252
X0476968Y0752461
X0473819
X0472441Y0779527
X0551476Y0782087
T02
X0264902Y0764116
X0274902
X028311
Y0774116
X0274902
X0264902
X029311
X030122
X031122
Y0764116
X030122
X029311
X0319232
Y0774116
X0329232
X0337244
Y0764116
X0329232
X0347244
X0355354
X0365354
X0373465
X0383465
X0391578
X0401578
Y0774116
X0391578
X0383465
X0373465
X0365354
X0355354
X0347244
X0465984Y0736516
Y07125
X0485984
Y0736516
X0515984
X0525984
Y07125
X0515984
X0512205Y0763622
X0521399Y0763723
X0531399
Y0773723
X0521399
X0512205Y0773622
X0502205
Y0763622
T03
X0411024Y0416831
X0421161Y0416634
X0440945Y0416732
X0450689Y0416634
X0625Y0539764
X0617717Y0539567
X061063Y053937
X0611909Y0532972
X061752Y0531988
X0624114Y0532677
X0603642Y0532972
X0602854Y0539272
X0596555Y053937
X0596063Y0532776
X0599803Y0501279
Y0493701
X0593307Y0489764
X0592323Y0500984
T04
X0233858Y0432677
Y0452362
X0275492Y0452264
Y0432579
T05
X0469547Y0524685
Y0534685
Y0544685
X0459547
Y0534685
Y0524685
X0373622Y0529094
Y0519094
X037372Y0547244
Y0557244
Y0567244
Y0577244
X0412402Y0581949
Y0571949
X0374902Y0636713
Y0646713
X0374705Y066437
Y067437
Y068437
Y069437
X0411417Y0698071
Y0708071
X0421159Y0775837
X043858Y0775936
X0465403Y0775837
X0463976Y0666594
Y0656594
Y0646594
X0453976
Y0656594
Y0666594
X0482824Y0775936
T06
X0597541Y0599212
Y0618897
X0234644Y0616339
Y0596654
X0234644Y0571358
Y0551673
Y0528051
Y0508366
X0234644Y0639961
Y0659646
Y0685104
Y0704789
Y0728411
Y0748096
X0597589Y0750583
Y0730898
Y0707276
Y0687591
X0597541Y0662204
Y0642519
T07
X0352361Y0419293
M30
